<?xml version="1.0" encoding="utf-8"?>
<!-- Generator: Adobe Illustrator 24.2.3, SVG Export Plug-In . SVG Version: 6.00 Build 0)  -->
<svg version="1.1" id="Calque_1" xmlns="http://www.w3.org/2000/svg" xmlns:xlink="http://www.w3.org/1999/xlink" x="0px" y="0px"
	 viewBox="0 0 841.9 595.3" style="enable-background:new 0 0 841.9 595.3;" xml:space="preserve">
<style type="text/css">
	.st0{fill:#FFFFFF;}
</style>
<g>
	<path class="st0" d="M492.6,263.1c10.7,0.3,20.8-0.6,30.7,2c5.1,1.4,8.9,4.8,12.1,8.8c5.9,7.5,11.8,15.1,17.6,22.8
		c1.2,1.5,1.7,1.8,3,0.1c5.5-7.1,11.2-13.9,16.6-21c5.3-7.2,12.1-11.2,21.1-11.7c7.3-0.4,14.7-0.8,22.1-0.6c-0.1,0.8-1.1,2-1.8,2.8
		c-13.7,16-27.5,32.1-41.3,48c-1.4,1.7-1.4,2.6,0,4.2c14.7,16.9,29.4,34,44.1,51c0.8,0.9,1.6,1.9,2.4,2.8c-0.1,0.6-1.2,0.5-4.5,0.6
		c-3.2,0-13.9,0.3-22-0.5c-6.9-0.6-12.4-3.7-16.6-9.2c-6-8.1-21.5-29-21.5-29s-14.8,18.8-20.9,27.2c-5,6.9-11.4,10.8-20,11.2
		c-7.8,0.4-15.7,0.3-23.6,0.4c0-1,1.2-2,1.8-2.8c14.6-16.9,29.2-33.9,43.9-50.7c1.9-2.2,1.7-3.3-0.1-5.3
		C521.6,297.4,507.4,280.5,492.6,263.1z"/>
	<path class="st0" d="M51,290.6c0-20.1,0-47.5,0-67.7c0-2.2,0.5-3,2.9-2.9c5.5,0.3,10.7,0,16.2,0.7c8,1.2,11,4.3,11.7,12.4
		c0.7,10.1,0.1,20.3,0.2,30.6c0,3.4,0,13.9,0,17.3c0,1.7,0.3,2.4,2.2,2.4c19.1,0,37.9-0.1,57,0c2.6,0,2.2-1.3,2.2-2.9
		c0-16.5,0-40.3-0.1-56.7c0-2.9,0.8-3.7,3.5-3.5c5.5,0.3,10.9,0,16.3,0.8c7.2,1.2,10.5,4.2,11,11.5c0.3,3,0.5,6.3,0.5,9.4
		c0,38,0,89.9,0,128c0,2.6-0.6,3.4-3.4,3.4c-2.8,0-9,0-13.5-0.1c-10.1-0.3-14.2-4.4-14.2-14.5c-0.1-13.5-0.1-33.2,0-46.9
		c0-2.4-0.5-3.4-3.1-3.4c-18.4,0.1-37,0.1-55.3,0c-2.4,0-3,0.7-3,3c0.1,17.4,0,41.3,0.1,58.8c0,2.2-1,2.9-3.4,2.9s-10.7,0-16.1-0.8
		c-7.2-1.2-10.1-3.8-11-11c-0.5-3.1-0.5-6.4-0.5-9.5C51,333.3,51,308.7,51,290.6z"/>
	<path class="st0" d="M766.7,355.4c-12.4,17.3-29.9,20-48.9,18c-9.4-0.9-18.2-3.8-26-9.4c-16.7-12.3-15-40.8-0.3-50.2
		c6.9-4.3,14.4-6.4,22.2-7.3c14.1-1.7,28.4-0.8,42.4-0.9c5.6-0.1,5.6,0,4.4-5.8c-1.6-8.1-6.5-12.2-16.3-13.3
		c-10.5-1.2-20.7-0.3-31-0.7c-4.2-0.1-8.4,0.1-12.7-0.5c-5.6-0.9-8-3.1-9-8.8c-0.7-4.3-0.5-8.6-0.7-12.8c0-1.6,0.7-2,2.1-2
		c17.4,0.3,34.8-0.5,52.2,0.5c5.6,0.3,11,1.3,16.5,2.9c17.3,5,26.7,16.2,28.6,34.1c0.5,3.8,0.7,7.6,0.7,11.4c0,19.6,0,39.5,0,59.2
		c0,2.2-0.5,3-2.9,2.9c-4.6-0.3-9.2,0.1-13.7-0.7c-4.6-0.8-6.3-2.6-7.2-7.2C766.7,362,766.9,359,766.7,355.4z M724.4,324
		c-2.6,0-11.9-0.4-12.9,4.8c-0.8,3.9-1.4,8.8-0.5,13.3c0.5,2.6,3.9,6.6,11.4,8s19.3,1.3,28.9,0c5.8-0.8,8.1-3.7,9.2-9.4
		c0.8-4.8,0.5-9.5,0.7-14.4c0-2-0.9-2-2.4-2C752.4,324.2,729.5,324,724.4,324z"/>
	<path class="st0" d="M439.3,326.4c-11.2,0-22.2,0.1-33.5,0c-2.7,0-3.4,0.7-2.9,3.1c1.7,11.6,10.6,19.2,24.1,19.6
		c9,0.3,17.9,0.1,27.1,0.1c3.8,0,7.7,0.1,11.4,0.5c6.7,0.7,9.3,3,10.5,9.8c0.7,3.8,0.5,7.8,0.7,11.6c0,1.6-0.7,2-2.1,2
		c-17.9-0.3-35.8,0.7-53.6-0.7c-7.3-0.5-14.4-2.2-21.2-5.5c-15.2-7.1-23-19.5-25.8-35.3c-2-11.2-1.7-22.4,0.8-33.5
		c4.4-19.2,16.3-31.4,35.6-36c15-3.7,30.2-4.1,45.1,1.3c18.2,6.5,27.8,20.1,29.9,39.1c0.7,5.5,0.7,10.9-0.3,16.3
		c-0.8,4.2-2.7,6-7.1,6.7c-2.2,0.3-4.6,0.5-7.1,0.5C460.2,326.4,449.8,326.4,439.3,326.4L439.3,326.4z M452.3,307.6
		c0.1,0,0.1,0,0.3,0c2.3,0.1,2.9-0.7,2.7-2.7c-0.8-10.1-8.2-19.2-17.6-20.5c-9.5-1.3-20.3-0.8-25.6-0.1s-7.7,3.5-8.5,9
		c-0.5,4.1-0.5,8-0.7,12c0,1.4,0.4,2.4,2.6,2.4L452.3,307.6z"/>
	<path class="st0" d="M261.3,326.4c-11.2,0-22.2,0.1-33.5,0c-2.7,0-3.4,0.7-2.9,3.1c1.7,11.6,10.6,19.2,24.1,19.6
		c9,0.3,17.9,0.1,27.1,0.1c3.8,0,7.7,0.1,11.4,0.5c6.7,0.7,9.3,3,10.5,9.8c0.7,3.8,0.5,7.8,0.7,11.6c0,1.6-0.7,2-2.1,2
		c-17.9-0.3-35.8,0.7-53.6-0.7c-7.3-0.5-14.4-2.2-21.2-5.5c-15.2-7.1-23-19.5-25.8-35.3c-2-11.2-1.7-22.4,0.8-33.5
		c4.4-19.2,16.3-31.4,35.6-36c15-3.7,30.2-4.1,45.1,1.3c18.2,6.5,27.8,20.1,29.9,39.1c0.7,5.5,0.7,10.9-0.3,16.3
		c-0.8,4.2-2.7,6-7.1,6.7c-2.2,0.3-4.6,0.5-7.1,0.5C282.2,326.4,271.7,326.4,261.3,326.4L261.3,326.4z M274.2,307.6
		c0.1,0,0.1,0,0.3,0c2.3,0.1,2.9-0.7,2.7-2.7c-0.8-10.1-8.2-19.2-17.6-20.5c-9.5-1.3-20.3-0.8-25.6-0.1c-5.4,0.7-7.7,3.5-8.5,9
		c-0.5,4.1-0.5,8-0.7,12c0,1.4,0.4,2.4,2.6,2.4L274.2,307.6z"/>
	<path class="st0" d="M355.4,369.7c0,2.6-0.9,3.3-3.1,3.1c-2.8-0.1-10.1,0-15.2-0.8c-7.7-1.2-10.9-4.2-11.5-12
		c-0.3-3-0.3-6.3-0.3-9.4c0-42.9,0-84-0.1-126.7c0-2.9,0.8-3.7,3.5-3.5c5.5,0.1,10.9-0.1,16.3,0.8c6,1.2,8.6,3.7,9.5,9.8
		c0.7,3.5,0.7,7.1,0.7,10.6C355.4,262.3,355.4,347.3,355.4,369.7z"/>
	<path class="st0" d="M634.2,311.8c0-15.7,0-31.2,0-46.9c0-1.7-0.3-2.9,2.7-2.9c6.1,0,12.9,0.2,16,0.7c5.5,0.9,9.2,1.7,10.3,6
		c1.1,4.3,1.1,100.2,1.1,100.2c0,2.9-0.9,4.4-3.7,4.3c-5.6,0-9.9,0-14.9-0.8c-8.5-1.3-11.5-2.8-11.5-19.5
		C634.2,339.1,634.2,325.4,634.2,311.8z"/>
	<path class="st0" d="M638.9,251.1c-2.2-1.3-3.7-3.4-4.3-6c-1.2-4.9-1.2-15.4-1.2-15.4c12.8-0.5,21.2-0.1,25.9,3
		c1.7,1.3,2.9,3,3.5,5.6c0.7,2.6,0.9,10.2,0.9,15v0.8C647.1,253.8,644.4,253.9,638.9,251.1z"/>
</g>
</svg>
